<svg width="87" height="87" viewBox="0 0 87 87" fill="none" xmlns="http://www.w3.org/2000/svg">
<path d="M37.5007 0.576723L42.9333 8.55237C40.4903 9.99705 37.5068 12.489 33.9829 16.0283C30.6711 19.4648 27.5373 23.4043 24.5816 27.8469C21.626 32.2894 19.4848 36.9268 18.1581 41.7591C19.3696 41.8273 20.3962 41.9195 21.2381 42.0356C22.2921 42.0491 23.2914 42.2199 24.2359 42.5483C27.6994 43.752 30.2014 45.945 31.7421 49.1272C33.4949 52.2067 33.66 55.793 32.2373 59.8862C30.6505 64.4516 28.0265 67.6861 24.3653 69.5896C20.7588 71.3357 16.909 71.4974 12.8159 70.0747C6.83358 67.9955 3.03419 64.2047 1.41771 58.7023C-0.198775 53.2 0.08734 47.3002 2.27604 41.0031C3.80813 36.5951 6.24016 31.8823 9.57213 26.8648C13.1162 21.7445 17.2901 16.8431 22.0936 12.1606C26.9519 7.32065 32.0876 3.45936 37.5007 0.576723ZM80.951 15.6788L86.3836 23.6544C83.9406 25.0991 80.9571 27.5911 77.4332 31.1303C74.1214 34.5668 70.9876 38.5064 68.0319 42.9489C65.0763 47.3915 62.9351 52.0289 61.6084 56.8612C62.8199 56.9293 63.8465 57.0215 64.6884 57.1377C65.7424 57.1511 66.7417 57.322 67.6862 57.6503C71.1497 58.8541 73.6517 61.0471 75.1924 64.2293C76.9452 67.3088 77.1103 70.8951 75.6876 74.9882C74.1008 79.5536 71.4768 82.7881 67.8156 84.6916C64.2091 86.4377 60.3593 86.5994 56.2662 85.1768C50.2839 83.0975 46.4845 79.3067 44.868 73.8044C43.2515 68.302 43.5376 62.4022 45.7263 56.1051C47.2584 51.6971 49.6905 46.9843 53.0224 41.9668C56.5665 36.8465 60.7404 31.9451 65.5439 27.2626C70.4022 22.4227 75.5379 18.5614 80.951 15.6788Z" fill="url(#paint0_linear_119_3)"/>
<defs>
<linearGradient id="paint0_linear_119_3" x1="60.9416" y1="-3.88345" x2="-257.985" y2="314.507" gradientUnits="userSpaceOnUse">
<stop stop-color="#FCFCFC" stop-opacity="0"/>
<stop offset="1" stop-color="white" stop-opacity="0.5"/>
</linearGradient>
</defs>
</svg>
