<svg width="65" height="63" viewBox="0 0 65 63" fill="none" xmlns="http://www.w3.org/2000/svg">
<g opacity="0.78">
<mask id="mask0_26_121" style="mask-type:alpha" maskUnits="userSpaceOnUse" x="0" y="0" width="65" height="63">
<path d="M45.9135 62.6547C46.4286 62.8509 46.9797 62.9415 47.5322 62.9207C48.0848 62.9 48.6271 62.7684 49.1254 62.5341L62.4557 56.2683C63.1422 55.9454 63.7215 55.4398 64.1269 54.8095C64.5323 54.1792 64.7473 53.45 64.7472 52.7056V10.2188C64.7473 9.4745 64.5323 8.74528 64.1269 8.11506C63.7215 7.48483 63.1422 6.9792 62.4557 6.65633L49.1256 0.390314C48.3724 0.0362497 47.5251 -0.0803285 46.7011 0.0567153C45.877 0.193759 45.117 0.577647 44.5261 1.15524L19.0068 23.8985L7.89074 15.6559C7.38932 15.2841 6.77047 15.0955 6.14158 15.1228C5.51268 15.1501 4.91342 15.3916 4.44777 15.8055L0.882669 18.9736C-0.292917 20.018 -0.294186 21.8247 0.879622 22.8709L10.5197 31.4622L0.879622 40.0533C-0.294186 41.0997 -0.292917 42.9061 0.882669 43.9508L4.44777 47.1187C4.91339 47.5326 5.51264 47.7741 6.14153 47.8015C6.77043 47.8289 7.38929 47.6403 7.89074 47.2685L19.0068 39.0257L44.5261 61.7689C44.9207 62.155 45.3931 62.4566 45.9135 62.6547ZM48.5703 17.1039L29.2069 31.4622L48.5703 45.8203V17.1039Z" fill="white"/>
</mask>
<g mask="url(#mask0_26_121)">
<path d="M62.4953 6.66606L49.1545 0.391355C48.4011 0.0370048 47.5535 -0.0798218 46.7291 0.0570417C45.9048 0.193905 45.1443 0.577691 44.553 1.15529L0.880099 40.0533C-0.294472 41.0998 -0.292948 42.9062 0.883145 43.9509L4.45053 47.1188C4.91657 47.5327 5.51619 47.7743 6.14545 47.8017C6.77471 47.829 7.39394 47.6404 7.89578 47.2686L60.4879 8.29389C62.2523 6.98651 64.7865 8.21576 64.7865 10.3791V10.2278C64.7865 9.48362 64.5715 8.75457 64.1661 8.12449C63.7608 7.4944 63.1817 6.98888 62.4953 6.66606Z" fill="#0065A9"/>
<path d="M62.4953 56.2575L49.1545 62.5322C48.4011 62.8864 47.5535 63.0032 46.7292 62.8664C45.9048 62.7295 45.1443 62.3458 44.553 61.7682L0.880099 22.8702C-0.294472 21.824 -0.292948 20.0173 0.883145 18.9729L4.45053 15.8048C4.9166 15.3909 5.51624 15.1493 6.1455 15.122C6.77476 15.0947 7.39397 15.2833 7.89578 15.6552L60.4879 54.6296C62.2523 55.937 64.7865 54.7078 64.7865 52.5442V52.6957C64.7865 53.4399 64.5714 54.1689 64.1661 54.799C63.7608 55.4291 63.1816 55.9346 62.4953 56.2575Z" fill="#007ACC"/>
<path d="M49.1127 62.5372C48.359 62.8913 47.5114 63.0079 46.687 62.8709C45.8625 62.7339 45.102 62.3501 44.5106 61.7725C46.0038 63.2309 48.5574 62.1979 48.5574 60.1348V2.79607C48.5574 0.732946 46.0038 -0.300105 44.5106 1.15857C45.102 0.580922 45.8625 0.197038 46.6869 0.0600035C47.5114 -0.0770308 48.359 0.0395551 49.1127 0.393639L62.4511 6.65966C63.1379 6.9823 63.7175 7.48785 64.1231 8.1181C64.5287 8.74835 64.7439 9.47768 64.7439 10.2221V52.7092C64.7439 54.2284 63.8527 55.6134 62.4511 56.2717L49.1127 62.5374V62.5372Z" fill="#1F9CF0"/>
<path d="M45.9135 62.6541C46.4287 62.8503 46.9797 62.9409 47.5322 62.9201C48.0848 62.8994 48.6271 62.7678 49.1254 62.5336L62.4554 56.2675C63.142 55.9447 63.7214 55.4391 64.1268 54.8089C64.5322 54.1786 64.7473 53.4494 64.7472 52.7051V10.2182C64.7473 9.47393 64.5323 8.74472 64.1269 8.11449C63.7215 7.48427 63.1422 6.97864 62.4557 6.65577L49.1251 0.389501C48.3719 0.0354936 47.5247 -0.0810537 46.7007 0.0559889C45.8767 0.193031 45.1167 0.576887 44.5259 1.15443L19.0068 23.8979L7.89074 15.6553C7.38932 15.2835 6.77047 15.0949 6.14158 15.1222C5.51268 15.1496 4.91342 15.3911 4.44777 15.8049L0.882669 18.973C-0.292917 20.0175 -0.294186 21.8241 0.879622 22.8703L10.5197 31.4617L0.879622 40.0527C-0.294186 41.0992 -0.292917 42.9056 0.882669 43.9503L4.44777 47.1181C4.91339 47.532 5.51264 47.7736 6.14153 47.8009C6.77043 47.8283 7.38929 47.6397 7.89074 47.268L19.0068 39.0251L44.5259 61.7684C44.9205 62.1544 45.393 62.4561 45.9135 62.6541ZM48.5703 17.1031L29.2069 31.4617L48.5703 45.8197V17.1034V17.1031Z" fill="url(#paint0_linear_26_121)" fill-opacity="0.25"/>
</g>
</g>
<defs>
<linearGradient id="paint0_linear_26_121" x1="32.3737" y1="0.00012207" x2="32.3737" y2="62.923" gradientUnits="userSpaceOnUse">
<stop stop-color="white"/>
<stop offset="1" stop-color="white" stop-opacity="0"/>
</linearGradient>
</defs>
</svg>
