<svg width="65" height="64" viewBox="0 0 65 64" fill="none" xmlns="http://www.w3.org/2000/svg">
<g opacity="0.78">
<path d="M0 4C0 1.79086 1.79086 0 4 0H61C63.2091 0 65 1.79086 65 4V60C65 62.2091 63.2091 64 61 64H4C1.79086 64 0 62.2091 0 60V4Z" fill="#FF0066"/>
<path d="M22.1178 20.595C24.1737 20.5655 25.819 18.9057 25.7992 16.8812C25.7792 14.8565 24.1016 13.2285 22.0452 13.2382C19.9888 13.248 18.3273 14.8917 18.327 16.9165C18.3287 17.4036 18.4283 17.8856 18.6201 18.3347C18.8119 18.7838 19.092 19.1911 19.4444 19.5331C19.7968 19.8751 20.2145 20.145 20.6733 20.3273C21.1321 20.5096 21.6231 20.6006 22.1178 20.5952V20.595Z" fill="white"/>
<path d="M14.258 40.2892C14.0429 41.195 13.9305 42.1215 13.9229 43.0517C13.9229 46.29 15.7063 48.4402 19.4971 48.4402C22.6405 48.4402 25.191 46.6022 27.0242 43.6327L25.9034 48.0615H32.1434L35.7134 33.9815C36.6051 30.4127 38.3314 28.562 40.9522 28.562C43.0139 28.562 44.2959 29.824 44.2959 31.9105C44.3061 32.5792 44.2121 33.2457 44.0176 33.8867L42.1793 40.361C41.9164 41.2526 41.7852 42.1768 41.7896 43.1052C41.7896 46.1772 43.6279 48.4302 47.473 48.4302C50.7621 48.4302 53.383 46.3462 54.8312 41.3517L52.3793 40.4172C51.1521 43.7657 50.0941 44.3697 49.2593 44.3697C48.4247 44.3697 47.9748 43.8222 47.9748 42.7237C47.9989 42.1474 48.0923 41.5759 48.253 41.0212L50.0393 34.7112C50.4403 33.4139 50.6471 32.0659 50.653 30.7097C50.653 25.989 47.7539 23.5265 44.2413 23.5265C40.9522 23.5265 37.6088 26.4472 35.9368 29.522L37.1614 24.0025H27.6323L26.2934 28.8665H30.7551L28.0096 39.68C25.8514 44.4007 21.8892 44.4775 21.3925 44.3675C20.576 44.1855 20.056 43.881 20.056 42.8312C20.0799 41.9815 20.2109 41.138 20.446 40.32L24.6268 23.9897H14.0397L12.7034 28.8537H17.1051L14.258 40.2892Z" fill="white"/>
</g>
</svg>
